<?xml version="1.0" encoding="UTF-8"?><svg id="Camada_1" xmlns="http://www.w3.org/2000/svg" viewBox="0 0 1017 443"><defs><style>.cls-1{fill:#eecfa2;}.cls-2{fill:#2b2a25;}</style></defs><rect class="cls-1" x="-15" y="-5.5" width="1047" height="454.01"/><path class="cls-2" d="m214.26,175.94c-5.98-6.04-12.96-10.81-20.73-14.17-8.04-3.47-16.6-5.28-25.43-5.38h-1.41c-8.83.09-17.38,1.9-25.42,5.38-7.77,3.36-14.75,8.12-20.73,14.17-5.99,6.05-10.69,13.07-13.97,20.88-3.4,8.09-5.12,16.67-5.12,25.52s1.72,17.43,5.12,25.52c3.28,7.81,7.98,14.84,13.97,20.88,5.99,6.04,12.96,10.81,20.73,14.17,8.04,3.47,16.6,5.28,25.43,5.38h1.41c8.83-.09,17.38-1.9,25.42-5.38,7.77-3.36,14.75-8.12,20.73-14.17,5.99-6.04,10.68-13.07,13.97-20.88,3.4-8.09,5.12-16.67,5.12-25.52s-1.72-17.43-5.12-25.52c-3.28-7.81-7.98-14.84-13.97-20.88Zm-9.55,91.01c-9.77,11.87-22.78,18.52-36.62,18.73h-1.37c-13.85-.21-26.87-6.86-36.64-18.73-9.84-11.95-15.25-27.79-15.25-44.61s5.42-32.66,15.25-44.61c9.77-11.87,22.78-18.52,36.62-18.73h1.37c13.85.21,26.86,6.86,36.64,18.73,9.84,11.94,15.25,27.79,15.25,44.61s-5.42,32.66-15.25,44.61Z"/><path class="cls-2" d="m293.58,221.95c3.88-1.47,7.5-3.64,10.61-6.44,7.12-6.42,11.21-15.62,11.21-25.25s-4.08-18.83-11.21-25.24c-6.06-5.47-13.88-8.53-22.03-8.63h-33.79s0,2.61,0,2.61h-.23v126.68h.23v2.61h13v-2.61h.15l.19-40.93c0-10.97,8.66-20.02,19.45-20.5l20.33,61.43.86,2.61h14l-1.34-2.61-21.45-63.73Zm-11.51-.34c-8.85,0-16.74,5.13-20.55,12.82v-75.44h20.61c4.85.09,9.51,1.93,13.12,5.19,4.21,3.8,6.68,9.24,6.75,14.92v22.3c-.08,5.69-2.54,11.14-6.75,14.94-3.7,3.34-8.37,5.21-13.14,5.28h-.05Z"/><path class="cls-2" d="m512.37,158.99h0v62.43h-14.87v-66h-13v66h-35v-66h-13v134h13v-64h35v64h13v-64h14.87v60.26h0c.06.87.16,1.74.26,2.61h66.99v-22.86h-2.61v1c0,10.21-7.98,18.67-18.1,19.25h-33.16v-60.26h15.74v-1.78h.07v-2.61h-15.82v-62.04h33.11c10.18.58,18.16,9.04,18.16,19.25v1h2.61v-22.86h-67.25v2.61Z"/><path class="cls-2" d="m659.24,157.69c0,4.04-3.28,7.32-7.32,7.32-1.49,0-2.92-.45-4.11-1.26-6.09-4.67-13.37-7.22-21.07-7.36-4.76-.09-9.41.75-13.82,2.49-4.56,1.8-8.65,4.49-12.19,8.03-3.72,3.73-6.51,8.11-8.26,12.95-.01.03-.11.3-.11.31-2.45,6.91-.3,14.73,5.35,19.47.09.08,1.95,1.63,4.87,4.08,10.01,8.39,32.52,27.27,39.44,33.08h0s2.04,1.72,2.04,1.72c.38.34.75.69,1.12,1.06,5.1,5.1,7.91,11.88,7.91,19.1s-2.81,14-7.91,19.1c-4.84,4.85-11.29,7.65-18.14,7.9h-.56c-.26.01-.52.01-.79.01h-.58c-7.43-.23-14.38-2.83-20.08-7.53l-.13-.11c-.15-.13-.3-.25-.46-.39l-.12-.1c-.18-.15-.35-.31-.51-.45l-.68-.64c-.17-.16-.34-.33-.51-.49-5.31-5.31-8.59-12.05-9.48-19.49-.16-1.31-.24-2.65-.24-4.01v-1h-2.61v36.52h2.61v-1c0-4.03,3.28-7.31,7.31-7.31,1.53,0,2.99.46,4.23,1.34l.05.03c5.95,4.51,13.05,7.01,20.55,7.22l1.04.02,1.05-.02c9.16-.27,17.77-3.98,24.25-10.46,7.18-7.18,10.98-17.11,10.43-27.25-.75-14.3-9.49-22.51-10.51-23.42l-45.56-38.23c-2.18-1.91-5.16-4.87-5.81-8.56-.88-4.97.68-9.6,2.69-11.63,3.25-3.25,7.04-5.74,11.27-7.41,4.09-1.61,8.4-2.38,12.82-2.31,7.16.13,13.93,2.5,19.58,6.85.13.1.89.71,1.11.89l1.66,1.49c.16.16.33.31.49.48,6.27,6.26,9.72,14.59,9.72,23.46v1h2.61v-36.48h-2.61v1Z"/><path class="cls-2" d="m672.57,179.24h2.61v-1c0-10.21,7.98-18.67,18.1-19.25h8.38v126.68h-.02c0,.87.02,1.74.06,2.61h13.65v-2.61h-.31v-126.68h8.32c10.18.58,18.16,9.04,18.16,19.25v1h2.61v-22.86h-71.56v22.86Z"/><path class="cls-2" d="m915.54,288.23s0-.04-.01-.06c-.15-.83-.28-1.66-.45-2.49h-.13l-39.67-128.59-.22-.71h-13.5l2.68,21.64-22.17,99.62c-1.26,4.73-1.56,8.03-6.45,8.03h-.26v2.52s0,.05,0,.08h10.9c.08-.3.17-.59.25-.89,0-.05,0-.09.02-.14.11-.48.25-.92.4-1.38.02-.07.05-.14.08-.2h-.06l9.03-40.5h32.99l13.3,43.11h13.3s0-.04-.01-.06Zm-59-45.66l13.25-59.51,18.36,59.51h-31.61Z"/><path class="cls-2" d="m803.58,221.95c3.88-1.47,7.5-3.64,10.61-6.44,7.12-6.42,11.21-15.62,11.21-25.25s-4.08-18.83-11.21-25.24c-6.06-5.47-13.88-8.53-22.03-8.63h-33.79s0,2.61,0,2.61h-.23v126.68h.23v2.61h13v-2.61h.15l.19-40.93c0-10.97,8.66-20.02,19.45-20.5l20.33,61.43.86,2.61h14l-1.34-2.61-21.45-63.73Zm-11.51-.34c-8.85,0-16.74,5.13-20.55,12.82v-75.44h20.61c4.85.09,9.51,1.93,13.12,5.19,4.21,3.8,6.68,9.24,6.75,14.92v22.3c-.08,5.69-2.54,11.14-6.75,14.94-3.7,3.34-8.37,5.21-13.14,5.28h-.05Z"/><path class="cls-2" d="m393.11,199.79c0,8.17,6.63,14.8,14.8,14.8s14.8-6.63,14.8-14.8c0-3.03-.91-5.84-2.47-8.19-1.35-3.71-2.95-7.25-4.78-10.59-3.01-5.46-6.6-10.28-10.67-14.3-8.53-8.44-18.67-12.98-29.34-13.14h-1.07c-6.83.1-13.45,2-19.65,5.65-5.95,3.5-11.28,8.45-15.83,14.71-4.53,6.22-8.08,13.44-10.55,21.46-2.55,8.28-3.85,17.06-3.85,26.1s1.29,17.82,3.85,26.1c2.48,8.02,6.03,15.24,10.55,21.46,4.56,6.27,9.88,11.21,15.83,14.71,6.21,3.65,12.83,5.55,19.68,5.65h1.07c9.04-.13,17.88-3.51,25.57-9.77,7.38-6.02,13.53-14.54,17.78-24.64l.59-1.39-3.62-2.82-1,2.37c-3.97,9.42-9.67,17.34-16.48,22.89-6.92,5.64-14.83,8.68-22.87,8.8h-.99c-9.86-.2-19.18-6.75-26.25-18.44-7.27-12.01-11.27-27.96-11.27-44.92s4-32.91,11.27-44.92c7.07-11.68,16.38-18.23,26.21-18.44h1c7.73.16,15.17,4.23,21.51,11.76,3.57,4.25,6.63,9.39,9.1,15.22-7.27.94-12.9,7.14-12.9,14.66Z"/></svg>